<svg width="41" height="41" viewBox="0 0 41 41" fill="none" xmlns="http://www.w3.org/2000/svg">
<path d="M18.4547 15.505V18.281H16.64V21.674H18.4547V31.76H22.1848V21.674H24.6872C24.6872 21.674 24.923 20.047 25.0364 18.2669H22.1992V15.9485C22.1992 15.5997 22.6061 15.134 23.0093 15.134H25.04V11.6H22.2766C18.3629 11.6 18.4547 14.997 18.4547 15.505Z" fill="#F8F8F8"/>
<path d="M20.84 36.968C25.1174 36.968 29.2196 35.2688 32.2442 32.2442C35.2688 29.2196 36.968 25.1174 36.968 20.84C36.968 16.5626 35.2688 12.4604 32.2442 9.43578C29.2196 6.4112 25.1174 4.712 20.84 4.712C16.5626 4.712 12.4604 6.4112 9.43577 9.43578C6.41119 12.4604 4.71199 16.5626 4.71199 20.84C4.71199 25.1174 6.41119 29.2196 9.43577 32.2442C12.4604 35.2688 16.5626 36.968 20.84 36.968V36.968ZM20.84 41C9.70563 41 0.679993 31.9744 0.679993 20.84C0.679993 9.70563 9.70563 0.68 20.84 0.68C31.9744 0.68 41 9.70563 41 20.84C41 31.9744 31.9744 41 20.84 41Z" fill="#F8F8F8"/>
</svg>
