<svg width="42" height="42" viewBox="0 0 42 42" fill="none" xmlns="http://www.w3.org/2000/svg">
<path d="M18.4489 15.3635V17.8605H16.6301V20.9123H18.4489V29.9845H22.1875V20.9123H24.6955C24.6955 20.9123 24.9319 19.449 25.0456 17.8478H22.2019V15.7624C22.2019 15.4487 22.6097 15.0298 23.0139 15.0298H25.0492V11.851H22.2795C18.3569 11.851 18.4489 14.9065 18.4489 15.3635Z" fill="#AD0E9D"/>
<path d="M20.8396 37.1515C25.1268 37.1515 29.2383 35.4412 32.2698 32.3968C35.3012 29.3523 37.0043 25.2232 37.0043 20.9178C37.0043 16.6123 35.3012 12.4832 32.2698 9.43878C29.2383 6.39436 25.1268 4.68403 20.8396 4.68403C16.5525 4.68403 12.4409 6.39436 9.40949 9.43878C6.37802 12.4832 4.67497 16.6123 4.67497 20.9178C4.67497 25.2232 6.37802 29.3523 9.40949 32.3968C12.4409 35.4412 16.5525 37.1515 20.8396 37.1515V37.1515ZM20.8396 41.2099C9.67995 41.2099 0.633804 32.1251 0.633804 20.9178C0.633804 9.7104 9.67995 0.625595 20.8396 0.625595C31.9993 0.625595 41.0454 9.7104 41.0454 20.9178C41.0454 32.1251 31.9993 41.2099 20.8396 41.2099Z" fill="#AD0E9D"/>
</svg>
