<svg width="42" height="42" viewBox="0 0 42 42" fill="none" xmlns="http://www.w3.org/2000/svg">
<path fill-rule="evenodd" clip-rule="evenodd" d="M17.3875 12.055C18.365 12.01 18.6767 12 21.1667 12C23.6567 12 23.9683 12.0108 24.945 12.055C25.9217 12.0992 26.5883 12.255 27.1717 12.4808C27.7825 12.7117 28.3367 13.0725 28.795 13.5392C29.2617 13.9967 29.6217 14.55 29.8517 15.1617C30.0783 15.745 30.2333 16.4117 30.2783 17.3867C30.3233 18.3658 30.3333 18.6775 30.3333 21.1667C30.3333 23.6567 30.3225 23.9683 30.2783 24.9458C30.2342 25.9208 30.0783 26.5875 29.8517 27.1708C29.6217 27.7826 29.2611 28.3368 28.795 28.795C28.3367 29.2617 27.7825 29.6217 27.1717 29.8517C26.5883 30.0783 25.9217 30.2333 24.9467 30.2783C23.9683 30.3233 23.6567 30.3333 21.1667 30.3333C18.6767 30.3333 18.365 30.3225 17.3875 30.2783C16.4125 30.2342 15.7458 30.0783 15.1625 29.8517C14.5508 29.6216 13.9965 29.261 13.5383 28.795C13.072 28.3372 12.7111 27.7832 12.4808 27.1717C12.255 26.5883 12.1 25.9217 12.055 24.9467C12.01 23.9675 12 23.6558 12 21.1667C12 18.6767 12.0108 18.365 12.055 17.3883C12.0992 16.4117 12.255 15.745 12.4808 15.1617C12.7114 14.5501 13.0726 13.9961 13.5392 13.5383C13.9967 13.0721 14.5504 12.7112 15.1617 12.4808C15.745 12.255 16.4117 12.1 17.3867 12.055H17.3875ZM24.8708 13.705C23.9042 13.6608 23.6142 13.6517 21.1667 13.6517C18.7192 13.6517 18.4292 13.6608 17.4625 13.705C16.5683 13.7458 16.0833 13.895 15.76 14.0208C15.3325 14.1875 15.0267 14.385 14.7058 14.7058C14.4017 15.0017 14.1677 15.3619 14.0208 15.76C13.895 16.0833 13.7458 16.5683 13.705 17.4625C13.6608 18.4292 13.6517 18.7192 13.6517 21.1667C13.6517 23.6142 13.6608 23.9042 13.705 24.8708C13.7458 25.765 13.895 26.25 14.0208 26.5733C14.1675 26.9708 14.4017 27.3317 14.7058 27.6275C15.0017 27.9317 15.3625 28.1658 15.76 28.3125C16.0833 28.4383 16.5683 28.5875 17.4625 28.6283C18.4292 28.6725 18.7183 28.6817 21.1667 28.6817C23.615 28.6817 23.9042 28.6725 24.8708 28.6283C25.765 28.5875 26.25 28.4383 26.5733 28.3125C27.0008 28.1458 27.3067 27.9483 27.6275 27.6275C27.9317 27.3317 28.1658 26.9708 28.3125 26.5733C28.4383 26.25 28.5875 25.765 28.6283 24.8708C28.6725 23.9042 28.6817 23.6142 28.6817 21.1667C28.6817 18.7192 28.6725 18.4292 28.6283 17.4625C28.5875 16.5683 28.4383 16.0833 28.3125 15.76C28.1458 15.3325 27.9483 15.0267 27.6275 14.7058C27.3316 14.4017 26.9714 14.1677 26.5733 14.0208C26.25 13.895 25.765 13.7458 24.8708 13.705V13.705ZM19.9958 23.9925C20.6497 24.2647 21.3778 24.3014 22.0558 24.0964C22.7337 23.8914 23.3195 23.4574 23.713 22.8685C24.1065 22.2796 24.2834 21.5724 24.2134 20.8676C24.1434 20.1628 23.8308 19.5041 23.3292 19.0042C23.0094 18.6846 22.6227 18.4398 22.1969 18.2876C21.7712 18.1354 21.317 18.0795 20.8671 18.1238C20.4171 18.1682 19.9826 18.3118 19.5948 18.5443C19.207 18.7767 18.8756 19.0923 18.6244 19.4682C18.3732 19.8441 18.2085 20.2711 18.1421 20.7183C18.0757 21.1655 18.1093 21.6219 18.2405 22.0546C18.3716 22.4873 18.5971 22.8855 18.9006 23.2206C19.2041 23.5557 19.5782 23.8193 19.9958 23.9925ZM17.835 17.835C18.2725 17.3975 18.7919 17.0504 19.3636 16.8136C19.9352 16.5768 20.5479 16.455 21.1667 16.455C21.7854 16.455 22.3981 16.5768 22.9698 16.8136C23.5414 17.0504 24.0608 17.3975 24.4983 17.835C24.9359 18.2725 25.2829 18.7919 25.5197 19.3636C25.7565 19.9352 25.8784 20.5479 25.8784 21.1667C25.8784 21.7854 25.7565 22.3981 25.5197 22.9698C25.2829 23.5414 24.9359 24.0608 24.4983 24.4983C23.6147 25.3819 22.4163 25.8784 21.1667 25.8784C19.917 25.8784 18.7186 25.3819 17.835 24.4983C16.9514 23.6147 16.455 22.4163 16.455 21.1667C16.455 19.917 16.9514 18.7186 17.835 17.835V17.835ZM26.9233 17.1567C27.0318 17.0544 27.1186 16.9314 27.1786 16.795C27.2386 16.6586 27.2707 16.5115 27.2728 16.3624C27.275 16.2134 27.2473 16.0655 27.1912 15.9273C27.1352 15.7892 27.052 15.6638 26.9466 15.5584C26.8412 15.453 26.7158 15.3698 26.5777 15.3138C26.4395 15.2577 26.2916 15.23 26.1426 15.2322C25.9935 15.2343 25.8464 15.2664 25.71 15.3264C25.5736 15.3864 25.4506 15.4732 25.3483 15.5817C25.1494 15.7925 25.0405 16.0726 25.0448 16.3624C25.049 16.6523 25.166 16.9291 25.371 17.134C25.5759 17.339 25.8527 17.456 26.1426 17.4602C26.4324 17.4645 26.7125 17.3556 26.9233 17.1567V17.1567Z" fill="#AD0E9D"/>
<path d="M20.8333 37.5C25.2536 37.5 29.4928 35.7441 32.6184 32.6184C35.7441 29.4928 37.5 25.2536 37.5 20.8333C37.5 16.4131 35.7441 12.1738 32.6184 9.04822C29.4928 5.92261 25.2536 4.16667 20.8333 4.16667C16.4131 4.16667 12.1738 5.92261 9.04822 9.04822C5.92261 12.1738 4.16667 16.4131 4.16667 20.8333C4.16667 25.2536 5.92261 29.4928 9.04822 32.6184C12.1738 35.7441 16.4131 37.5 20.8333 37.5V37.5ZM20.8333 41.6667C9.32708 41.6667 0 32.3396 0 20.8333C0 9.32708 9.32708 0 20.8333 0C32.3396 0 41.6667 9.32708 41.6667 20.8333C41.6667 32.3396 32.3396 41.6667 20.8333 41.6667Z" fill="#AD0E9D"/>
</svg>
