<svg width="43" height="43" viewBox="0 0 43 43" fill="none" xmlns="http://www.w3.org/2000/svg">
<path d="M21.1667 37.9667C25.6223 37.9667 29.8954 36.1967 33.046 33.0461C36.1967 29.8955 37.9667 25.6223 37.9667 21.1667C37.9667 16.711 36.1967 12.4379 33.046 9.28727C29.8954 6.13666 25.6223 4.36667 21.1667 4.36667C16.711 4.36667 12.4379 6.13666 9.28726 9.28727C6.13665 12.4379 4.36666 16.711 4.36666 21.1667C4.36666 25.6223 6.13665 29.8955 9.28726 33.0461C12.4379 36.1967 16.711 37.9667 21.1667 37.9667V37.9667ZM21.1667 42.1667C9.56836 42.1667 0.166656 32.765 0.166656 21.1667C0.166656 9.56837 9.56836 0.166668 21.1667 0.166668C32.765 0.166668 42.1667 9.56837 42.1667 21.1667C42.1667 32.765 32.765 42.1667 21.1667 42.1667Z" fill="#F8F8F8"/>
<path d="M31.6667 14.7554C30.8939 15.0914 30.0644 15.3224 29.1929 15.4232C30.0833 14.8982 30.7637 14.0666 31.0871 13.0775C30.2386 13.5719 29.3128 13.9198 28.3487 14.1065C27.9431 13.6814 27.4552 13.3433 26.9147 13.113C26.3742 12.8826 25.7925 12.7648 25.205 12.7667C22.8257 12.7667 20.8979 14.6672 20.8979 17.0087C20.8979 17.3405 20.9357 17.6639 21.0092 17.9747C19.3025 17.8936 17.6316 17.4577 16.1028 16.6948C14.5741 15.9319 13.2212 14.8587 12.1304 13.5437C11.7472 14.1886 11.5455 14.925 11.5466 15.6752C11.5466 17.1452 12.3089 18.4472 13.4639 19.2053C12.7802 19.1838 12.1112 19.0018 11.5109 18.674V18.7265C11.5173 19.7123 11.8653 20.6655 12.4956 21.4236C13.1258 22.1817 13.9994 22.698 14.9675 22.8845C14.3319 23.0525 13.6669 23.0769 13.0208 22.9559C13.3024 23.804 13.8412 24.5434 14.5622 25.0714C15.2832 25.5993 16.1508 25.8897 17.0444 25.9022C15.5113 27.0835 13.629 27.7218 11.6936 27.7166C11.3471 27.7166 11.0048 27.6956 10.6667 27.6578C12.6416 28.9079 14.9317 29.57 17.2691 29.5667C25.1945 29.5667 29.5268 23.1029 29.5268 17.4959L29.5121 16.9457C30.3569 16.352 31.0869 15.6098 31.6667 14.7554V14.7554Z" fill="#F8F8F8"/>
</svg>
