<svg width="42" height="42" viewBox="0 0 42 42" fill="none" xmlns="http://www.w3.org/2000/svg">
<path d="M21 37.6667C25.4203 37.6667 29.6595 35.9107 32.7851 32.7851C35.9107 29.6595 37.6667 25.4203 37.6667 21C37.6667 16.5797 35.9107 12.3405 32.7851 9.21489C29.6595 6.08928 25.4203 4.33333 21 4.33333C16.5797 4.33333 12.3405 6.08928 9.21489 9.21489C6.08929 12.3405 4.33334 16.5797 4.33334 21C4.33334 25.4203 6.08929 29.6595 9.21489 32.7851C12.3405 35.9107 16.5797 37.6667 21 37.6667V37.6667ZM21 41.8333C9.49376 41.8333 0.166672 32.5062 0.166672 21C0.166672 9.49375 9.49376 0.166668 21 0.166668C32.5063 0.166668 41.8333 9.49375 41.8333 21C41.8333 32.5062 32.5063 41.8333 21 41.8333Z" fill="#AD0E9D"/>
<path d="M31.4167 14.6396C30.65 14.9729 29.8271 15.2021 28.9625 15.3021C29.8458 14.7812 30.5208 13.9562 30.8417 12.975C29.9999 13.4656 29.0815 13.8107 28.125 13.9958C27.7227 13.5741 27.2386 13.2388 26.7024 13.0102C26.1662 12.7817 25.5891 12.6648 25.0062 12.6667C22.6458 12.6667 20.7333 14.5521 20.7333 16.875C20.7333 17.2042 20.7708 17.525 20.8437 17.8333C19.1507 17.7529 17.493 17.3205 15.9763 16.5636C14.4597 15.8068 13.1175 14.7421 12.0354 13.4375C11.6553 14.0773 11.4552 14.8079 11.4562 15.5521C11.4562 17.0104 12.2125 18.3021 13.3583 19.0542C12.6801 19.0329 12.0164 18.8523 11.4208 18.5271V18.5792C11.4273 19.5572 11.7725 20.5028 12.3977 21.2549C13.023 22.007 13.8896 22.5192 14.85 22.7042C14.2195 22.8709 13.5598 22.8951 12.9187 22.775C13.1982 23.6164 13.7326 24.3499 14.448 24.8737C15.1633 25.3975 16.0239 25.6856 16.9104 25.6979C15.3895 26.8699 13.5222 27.5031 11.6021 27.4979C11.2583 27.4979 10.9187 27.4771 10.5833 27.4396C12.5426 28.6798 14.8145 29.3366 17.1333 29.3333C24.9958 29.3333 29.2937 22.9208 29.2937 17.3583L29.2792 16.8125C30.1173 16.2235 30.8415 15.4873 31.4167 14.6396V14.6396Z" fill="#AD0E9D"/>
</svg>
